<svg width="188" height="108" viewBox="0 0 188 108" fill="none" xmlns="http://www.w3.org/2000/svg">
<path d="M15.91 82.592L14.9177 84.3285L14.9283 84.3345L15.91 82.592ZM6.622 72.53L8.41549 71.6449L8.41549 71.6449L6.622 72.53ZM7.224 38.56L5.46981 37.5994L5.46539 37.6074L5.46104 37.6156L7.224 38.56ZM18.06 27.552L17.1053 25.7945L17.0962 25.7996L18.06 27.552ZM43.258 24.8L43.7161 22.8532L43.7161 22.8532L43.258 24.8ZM50.826 27.896L52.6118 28.7964L53.4196 27.1944L51.9144 26.2181L50.826 27.896ZM45.666 38.13L44.5305 39.7764L46.419 41.0788L47.4518 39.0304L45.666 38.13ZM40.334 35.808L39.8628 37.7517L39.8908 37.7585L39.919 37.7645L40.334 35.808ZM22.016 39.85L20.5758 38.4622L22.016 39.85ZM17.458 57.308H15.458V57.3534L15.4601 57.3988L17.458 57.308ZM17.974 61.092L16.6094 62.5541L21.3664 66.994L19.9243 60.6488L17.974 61.092ZM14.104 57.48L12.306 56.6041L11.6585 57.9333L12.7394 58.9421L14.104 57.48ZM18.318 51.89L19.6279 53.4014L19.642 53.3891L19.6559 53.3766L18.318 51.89ZM24.424 48.45L25.0285 50.3565L25.0425 50.352L25.0565 50.3474L24.424 48.45ZM42.828 49.568L43.7224 47.7791L43.7224 47.7791L42.828 49.568ZM50.224 56.104L48.5495 57.1976L48.5572 57.2094L48.5651 57.2212L50.224 56.104ZM49.966 76.658L48.3116 75.5342L48.3068 75.5412L49.966 76.658ZM41.796 83.624L42.6535 85.4309L42.6599 85.4278L42.6663 85.4247L41.796 83.624ZM34.658 74.594L35.4961 76.4099L35.5109 76.4031L35.5256 76.396L34.658 74.594ZM38.27 71.412L39.966 72.472L39.966 72.472L38.27 71.412ZM36.722 60.146L35.379 61.628L35.4032 61.6499L35.428 61.671L36.722 60.146ZM23.908 58.856L24.7756 60.658L24.8023 60.6451L24.8286 60.6315L23.908 58.856ZM20.21 62.038L18.5459 60.9286L18.5403 60.937L18.5348 60.9455L20.21 62.038ZM20.21 71.326L18.514 72.386L18.5242 72.4024L18.5348 72.4185L20.21 71.326ZM23.822 74.508L22.9014 76.2835L22.9277 76.2971L22.9544 76.31L23.822 74.508ZM30.272 84.032C25.0504 84.032 20.6133 82.9462 16.8917 80.8495L14.9283 84.3345C19.348 86.8245 24.4856 88.032 30.272 88.032V84.032ZM16.9023 80.8555C13.2578 78.7729 10.4299 75.7268 8.41549 71.6449L4.82851 73.4151C7.17142 78.1626 10.5355 81.8244 14.9177 84.3285L16.9023 80.8555ZM8.41549 71.6449C6.4086 67.5783 5.354 62.4548 5.354 56.19H1.354C1.354 62.8826 2.47807 68.6524 4.82851 73.4151L8.41549 71.6449ZM5.354 56.19C5.354 49.4954 6.59898 43.962 8.98696 39.5044L5.46104 37.6156C2.68902 42.79 1.354 49.01 1.354 56.19H5.354ZM8.97819 39.5206C11.4422 35.0212 14.7873 31.6345 19.0238 29.3044L17.0962 25.7996C12.1594 28.5148 8.28051 32.4668 5.46981 37.5994L8.97819 39.5206ZM19.0147 29.3094C23.327 26.9669 28.3225 25.768 34.056 25.768V21.768C27.7495 21.768 22.081 23.0917 17.1053 25.7945L19.0147 29.3094ZM34.056 25.768C37.123 25.768 40.036 26.0965 42.7999 26.7468L43.7161 22.8532C40.632 22.1275 37.4104 21.768 34.056 21.768V25.768ZM42.7999 26.7468C45.541 27.3918 47.8418 28.3442 49.7376 29.5739L51.9144 26.2181C49.5675 24.6958 46.823 23.5842 43.7161 22.8532L42.7999 26.7468ZM49.0402 26.9956L43.8802 37.2296L47.4518 39.0304L52.6118 28.7964L49.0402 26.9956ZM46.8015 36.4836C44.9313 35.1938 42.9107 34.3101 40.749 33.8515L39.919 37.7645C41.5413 38.1086 43.0754 38.7729 44.5305 39.7764L46.8015 36.4836ZM40.8052 33.8643C38.7499 33.3661 36.6132 33.12 34.4 33.12V37.12C36.3148 37.12 38.1341 37.3326 39.8628 37.7517L40.8052 33.8643ZM34.4 33.12C28.7516 33.12 24.0628 34.8436 20.5758 38.4622L23.4562 41.2378C26.0465 38.5497 29.6137 37.12 34.4 37.12V33.12ZM20.5758 38.4622C17.0521 42.1189 15.458 47.3738 15.458 53.868H19.458C19.458 47.9782 20.9026 43.8877 23.4562 41.2378L20.5758 38.4622ZM15.458 53.868C15.458 53.87 15.458 53.872 15.458 53.874C15.458 53.8761 15.458 53.8781 15.458 53.8801C15.458 53.8821 15.458 53.8841 15.458 53.8862C15.458 53.8882 15.458 53.8902 15.458 53.8922C15.458 53.8942 15.458 53.8962 15.458 53.8983C15.458 53.9003 15.458 53.9023 15.458 53.9043C15.458 53.9063 15.458 53.9084 15.458 53.9104C15.458 53.9124 15.458 53.9144 15.458 53.9165C15.458 53.9185 15.458 53.9205 15.458 53.9225C15.458 53.9246 15.458 53.9266 15.458 53.9286C15.458 53.9306 15.458 53.9326 15.458 53.9347C15.458 53.9367 15.458 53.9387 15.458 53.9407C15.458 53.9428 15.458 53.9448 15.458 53.9468C15.458 53.9489 15.458 53.9509 15.458 53.9529C15.458 53.9549 15.458 53.957 15.458 53.959C15.458 53.961 15.458 53.9631 15.458 53.9651C15.458 53.9671 15.458 53.9691 15.458 53.9712C15.458 53.9732 15.458 53.9752 15.458 53.9773C15.458 53.9793 15.458 53.9813 15.458 53.9834C15.458 53.9854 15.458 53.9874 15.458 53.9895C15.458 53.9915 15.458 53.9935 15.458 53.9956C15.458 53.9976 15.458 53.9996 15.458 54.0017C15.458 54.0037 15.458 54.0057 15.458 54.0078C15.458 54.0098 15.458 54.0118 15.458 54.0139C15.458 54.0159 15.458 54.018 15.458 54.02C15.458 54.022 15.458 54.0241 15.458 54.0261C15.458 54.0281 15.458 54.0302 15.458 54.0322C15.458 54.0343 15.458 54.0363 15.458 54.0383C15.458 54.0404 15.458 54.0424 15.458 54.0445C15.458 54.0465 15.458 54.0485 15.458 54.0506C15.458 54.0526 15.458 54.0547 15.458 54.0567C15.458 54.0588 15.458 54.0608 15.458 54.0628C15.458 54.0649 15.458 54.0669 15.458 54.069C15.458 54.071 15.458 54.0731 15.458 54.0751C15.458 54.0772 15.458 54.0792 15.458 54.0812C15.458 54.0833 15.458 54.0853 15.458 54.0874C15.458 54.0894 15.458 54.0915 15.458 54.0935C15.458 54.0956 15.458 54.0976 15.458 54.0997C15.458 54.1017 15.458 54.1038 15.458 54.1058C15.458 54.1079 15.458 54.1099 15.458 54.112C15.458 54.114 15.458 54.1161 15.458 54.1181C15.458 54.1202 15.458 54.1222 15.458 54.1243C15.458 54.1263 15.458 54.1284 15.458 54.1304C15.458 54.1325 15.458 54.1345 15.458 54.1366C15.458 54.1387 15.458 54.1407 15.458 54.1428C15.458 54.1448 15.458 54.1469 15.458 54.1489C15.458 54.151 15.458 54.153 15.458 54.1551C15.458 54.1572 15.458 54.1592 15.458 54.1613C15.458 54.1633 15.458 54.1654 15.458 54.1674C15.458 54.1695 15.458 54.1716 15.458 54.1736C15.458 54.1757 15.458 54.1777 15.458 54.1798C15.458 54.1819 15.458 54.1839 15.458 54.186C15.458 54.188 15.458 54.1901 15.458 54.1922C15.458 54.1942 15.458 54.1963 15.458 54.1984C15.458 54.2004 15.458 54.2025 15.458 54.2045C15.458 54.2066 15.458 54.2087 15.458 54.2107C15.458 54.2128 15.458 54.2149 15.458 54.2169C15.458 54.219 15.458 54.2211 15.458 54.2231C15.458 54.2252 15.458 54.2273 15.458 54.2293C15.458 54.2314 15.458 54.2335 15.458 54.2355C15.458 54.2376 15.458 54.2397 15.458 54.2417C15.458 54.2438 15.458 54.2459 15.458 54.2479C15.458 54.25 15.458 54.2521 15.458 54.2542C15.458 54.2562 15.458 54.2583 15.458 54.2604C15.458 54.2624 15.458 54.2645 15.458 54.2666C15.458 54.2687 15.458 54.2707 15.458 54.2728C15.458 54.2749 15.458 54.277 15.458 54.279C15.458 54.2811 15.458 54.2832 15.458 54.2853C15.458 54.2873 15.458 54.2894 15.458 54.2915C15.458 54.2936 15.458 54.2956 15.458 54.2977C15.458 54.2998 15.458 54.3019 15.458 54.3039C15.458 54.306 15.458 54.3081 15.458 54.3102C15.458 54.3123 15.458 54.3143 15.458 54.3164C15.458 54.3185 15.458 54.3206 15.458 54.3227C15.458 54.3247 15.458 54.3268 15.458 54.3289C15.458 54.331 15.458 54.3331 15.458 54.3351C15.458 54.3372 15.458 54.3393 15.458 54.3414C15.458 54.3435 15.458 54.3456 15.458 54.3476C15.458 54.3497 15.458 54.3518 15.458 54.3539C15.458 54.356 15.458 54.3581 15.458 54.3601C15.458 54.3622 15.458 54.3643 15.458 54.3664C15.458 54.3685 15.458 54.3706 15.458 54.3727C15.458 54.3748 15.458 54.3768 15.458 54.3789C15.458 54.381 15.458 54.3831 15.458 54.3852C15.458 54.3873 15.458 54.3894 15.458 54.3915C15.458 54.3936 15.458 54.3956 15.458 54.3977C15.458 54.3998 15.458 54.4019 15.458 54.404C15.458 54.4061 15.458 54.4082 15.458 54.4103C15.458 54.4124 15.458 54.4145 15.458 54.4166C15.458 54.4187 15.458 54.4208 15.458 54.4228C15.458 54.4249 15.458 54.427 15.458 54.4291C15.458 54.4312 15.458 54.4333 15.458 54.4354C15.458 54.4375 15.458 54.4396 15.458 54.4417C15.458 54.4438 15.458 54.4459 15.458 54.448C15.458 54.4501 15.458 54.4522 15.458 54.4543C15.458 54.4564 15.458 54.4585 15.458 54.4606C15.458 54.4627 15.458 54.4648 15.458 54.4669C15.458 54.469 15.458 54.4711 15.458 54.4732C15.458 54.4753 15.458 54.4774 15.458 54.4795C15.458 54.4816 15.458 54.4837 15.458 54.4858C15.458 54.4879 15.458 54.49 15.458 54.4921C15.458 54.4942 15.458 54.4963 15.458 54.4984C15.458 54.5005 15.458 54.5026 15.458 54.5047C15.458 54.5069 15.458 54.509 15.458 54.5111C15.458 54.5132 15.458 54.5153 15.458 54.5174C15.458 54.5195 15.458 54.5216 15.458 54.5237C15.458 54.5258 15.458 54.5279 15.458 54.53C15.458 54.5321 15.458 54.5343 15.458 54.5364C15.458 54.5385 15.458 54.5406 15.458 54.5427C15.458 54.5448 15.458 54.5469 15.458 54.549C15.458 54.5511 15.458 54.5533 15.458 54.5554C15.458 54.5575 15.458 54.5596 15.458 54.5617C15.458 54.5638 15.458 54.5659 15.458 54.5681C15.458 54.5702 15.458 54.5723 15.458 54.5744C15.458 54.5765 15.458 54.5786 15.458 54.5807C15.458 54.5829 15.458 54.585 15.458 54.5871C15.458 54.5892 15.458 54.5913 15.458 54.5934C15.458 54.5956 15.458 54.5977 15.458 54.5998C15.458 54.6019 15.458 54.604 15.458 54.6062C15.458 54.6083 15.458 54.6104 15.458 54.6125C15.458 54.6146 15.458 54.6168 15.458 54.6189C15.458 54.621 15.458 54.6231 15.458 54.6252C15.458 54.6274 15.458 54.6295 15.458 54.6316C15.458 54.6337 15.458 54.6359 15.458 54.638C15.458 54.6401 15.458 54.6422 15.458 54.6444C15.458 54.6465 15.458 54.6486 15.458 54.6507C15.458 54.6529 15.458 54.655 15.458 54.6571C15.458 54.6592 15.458 54.6614 15.458 54.6635C15.458 54.6656 15.458 54.6678 15.458 54.6699C15.458 54.672 15.458 54.6741 15.458 54.6763C15.458 54.6784 15.458 54.6805 15.458 54.6827C15.458 54.6848 15.458 54.6869 15.458 54.6891C15.458 54.6912 15.458 54.6933 15.458 54.6954C15.458 54.6976 15.458 54.6997 15.458 54.7018C15.458 54.704 15.458 54.7061 15.458 54.7082C15.458 54.7104 15.458 54.7125 15.458 54.7146C15.458 54.7168 15.458 54.7189 15.458 54.7211C15.458 54.7232 15.458 54.7253 15.458 54.7275C15.458 54.7296 15.458 54.7317 15.458 54.7339C15.458 54.736 15.458 54.7381 15.458 54.7403C15.458 54.7424 15.458 54.7446 15.458 54.7467C15.458 54.7488 15.458 54.751 15.458 54.7531C15.458 54.7553 15.458 54.7574 15.458 54.7595C15.458 54.7617 15.458 54.7638 15.458 54.766C15.458 54.7681 15.458 54.7702 15.458 54.7724C15.458 54.7745 15.458 54.7767 15.458 54.7788C15.458 54.781 15.458 54.7831 15.458 54.7852C15.458 54.7874 15.458 54.7895 15.458 54.7917C15.458 54.7938 15.458 54.796 15.458 54.7981C15.458 54.8003 15.458 54.8024 15.458 54.8046C15.458 54.8067 15.458 54.8088 15.458 54.811C15.458 54.8131 15.458 54.8153 15.458 54.8174C15.458 54.8196 15.458 54.8217 15.458 54.8239C15.458 54.826 15.458 54.8282 15.458 54.8303C15.458 54.8325 15.458 54.8346 15.458 54.8368C15.458 54.8389 15.458 54.8411 15.458 54.8432C15.458 54.8454 15.458 54.8476 15.458 54.8497C15.458 54.8519 15.458 54.854 15.458 54.8562C15.458 54.8583 15.458 54.8605 15.458 54.8626C15.458 54.8648 15.458 54.8669 15.458 54.8691C15.458 54.8712 15.458 54.8734 15.458 54.8756C15.458 54.8777 15.458 54.8799 15.458 54.882C15.458 54.8842 15.458 54.8863 15.458 54.8885C15.458 54.8907 15.458 54.8928 15.458 54.895C15.458 54.8971 15.458 54.8993 15.458 54.9015C15.458 54.9036 15.458 54.9058 15.458 54.9079C15.458 54.9101 15.458 54.9123 15.458 54.9144C15.458 54.9166 15.458 54.9187 15.458 54.9209C15.458 54.9231 15.458 54.9252 15.458 54.9274C15.458 54.9296 15.458 54.9317 15.458 54.9339C15.458 54.9361 15.458 54.9382 15.458 54.9404C15.458 54.9426 15.458 54.9447 15.458 54.9469C15.458 54.949 15.458 54.9512 15.458 54.9534C15.458 54.9555 15.458 54.9577 15.458 54.9599C15.458 54.9621 15.458 54.9642 15.458 54.9664C15.458 54.9686 15.458 54.9707 15.458 54.9729C15.458 54.9751 15.458 54.9772 15.458 54.9794C15.458 54.9816 15.458 54.9837 15.458 54.9859C15.458 54.9881 15.458 54.9903 15.458 54.9924C15.458 54.9946 15.458 54.9968 15.458 54.999C15.458 55.0011 15.458 55.0033 15.458 55.0055C15.458 55.0076 15.458 55.0098 15.458 55.012C15.458 55.0142 15.458 55.0163 15.458 55.0185C15.458 55.0207 15.458 55.0229 15.458 55.0251C15.458 55.0272 15.458 55.0294 15.458 55.0316C15.458 55.0338 15.458 55.0359 15.458 55.0381C15.458 55.0403 15.458 55.0425 15.458 55.0447C15.458 55.0468 15.458 55.049 15.458 55.0512C15.458 55.0534 15.458 55.0556 15.458 55.0577C15.458 55.0599 15.458 55.0621 15.458 55.0643C15.458 55.0665 15.458 55.0686 15.458 55.0708C15.458 55.073 15.458 55.0752 15.458 55.0774C15.458 55.0796 15.458 55.0817 15.458 55.0839C15.458 55.0861 15.458 55.0883 15.458 55.0905C15.458 55.0927 15.458 55.0949 15.458 55.097C15.458 55.0992 15.458 55.1014 15.458 55.1036C15.458 55.1058 15.458 55.108 15.458 55.1102C15.458 55.1123 15.458 55.1145 15.458 55.1167C15.458 55.1189 15.458 55.1211 15.458 55.1233C15.458 55.1255 15.458 55.1277 15.458 55.1299C15.458 55.1321 15.458 55.1342 15.458 55.1364C15.458 55.1386 15.458 55.1408 15.458 55.143C15.458 55.1452 15.458 55.1474 15.458 55.1496C15.458 55.1518 15.458 55.154 15.458 55.1562C15.458 55.1584 15.458 55.1606 15.458 55.1628C15.458 55.165 15.458 55.1671 15.458 55.1693C15.458 55.1715 15.458 55.1737 15.458 55.1759C15.458 55.1781 15.458 55.1803 15.458 55.1825C15.458 55.1847 15.458 55.1869 15.458 55.1891C15.458 55.1913 15.458 55.1935 15.458 55.1957C15.458 55.1979 15.458 55.2001 15.458 55.2023C15.458 55.2045 15.458 55.2067 15.458 55.2089C15.458 55.2111 15.458 55.2133 15.458 55.2155C15.458 55.2177 15.458 55.2199 15.458 55.2221C15.458 55.2243 15.458 55.2265 15.458 55.2287C15.458 55.2309 15.458 55.2331 15.458 55.2353C15.458 55.2376 15.458 55.2398 15.458 55.242C15.458 55.2442 15.458 55.2464 15.458 55.2486C15.458 55.2508 15.458 55.253 15.458 55.2552C15.458 55.2574 15.458 55.2596 15.458 55.2618C15.458 55.264 15.458 55.2662 15.458 55.2684C15.458 55.2707 15.458 55.2729 15.458 55.2751C15.458 55.2773 15.458 55.2795 15.458 55.2817C15.458 55.2839 15.458 55.2861 15.458 55.2883C15.458 55.2906 15.458 55.2928 15.458 55.295C15.458 55.2972 15.458 55.2994 15.458 55.3016C15.458 55.3038 15.458 55.306 15.458 55.3083C15.458 55.3105 15.458 55.3127 15.458 55.3149C15.458 55.3171 15.458 55.3193 15.458 55.3215C15.458 55.3238 15.458 55.326 15.458 55.3282C15.458 55.3304 15.458 55.3326 15.458 55.3348C15.458 55.3371 15.458 55.3393 15.458 55.3415C15.458 55.3437 15.458 55.3459 15.458 55.3482C15.458 55.3504 15.458 55.3526 15.458 55.3548C15.458 55.357 15.458 55.3593 15.458 55.3615C15.458 55.3637 15.458 55.3659 15.458 55.3681C15.458 55.3704 15.458 55.3726 15.458 55.3748C15.458 55.377 15.458 55.3793 15.458 55.3815C15.458 55.3837 15.458 55.3859 15.458 55.3882C15.458 55.3904 15.458 55.3926 15.458 55.3948C15.458 55.3971 15.458 55.3993 15.458 55.4015C15.458 55.4037 15.458 55.406 15.458 55.4082C15.458 55.4104 15.458 55.4126 15.458 55.4149C15.458 55.4171 15.458 55.4193 15.458 55.4216C15.458 55.4238 15.458 55.426 15.458 55.4283C15.458 55.4305 15.458 55.4327 15.458 55.4349C15.458 55.4372 15.458 55.4394 15.458 55.4416C15.458 55.4439 15.458 55.4461 15.458 55.4483C15.458 55.4506 15.458 55.4528 15.458 55.455C15.458 55.4573 15.458 55.4595 15.458 55.4617C15.458 55.464 15.458 55.4662 15.458 55.4684C15.458 55.4707 15.458 55.4729 15.458 55.4751C15.458 55.4774 15.458 55.4796 15.458 55.4819C15.458 55.4841 15.458 55.4863 15.458 55.4886C15.458 55.4908 15.458 55.493 15.458 55.4953C15.458 55.4975 15.458 55.4998 15.458 55.502C15.458 55.5042 15.458 55.5065 15.458 55.5087C15.458 55.511 15.458 55.5132 15.458 55.5154C15.458 55.5177 15.458 55.5199 15.458 55.5222C15.458 55.5244 15.458 55.5267 15.458 55.5289C15.458 55.5311 15.458 55.5334 15.458 55.5356C15.458 55.5379 15.458 55.5401 15.458 55.5424C15.458 55.5446 15.458 55.5468 15.458 55.5491C15.458 55.5513 15.458 55.5536 15.458 55.5558C15.458 55.5581 15.458 55.5603 15.458 55.5626C15.458 55.5648 15.458 55.5671 15.458 55.5693C15.458 55.5716 15.458 55.5738 15.458 55.5761C15.458 55.5783 15.458 55.5806 15.458 55.5828C15.458 55.5851 15.458 55.5873 15.458 55.5896C15.458 55.5918 15.458 55.5941 15.458 55.5963C15.458 55.5986 15.458 55.6008 15.458 55.6031C15.458 55.6053 15.458 55.6076 15.458 55.6098C15.458 55.6121 15.458 55.6143 15.458 55.6166C15.458 55.6189 15.458 55.6211 15.458 55.6234C15.458 55.6256 15.458 55.6279 15.458 55.6301C15.458 55.6324 15.458 55.6346 15.458 55.6369C15.458 55.6392 15.458 55.6414 15.458 55.6437C15.458 55.6459 15.458 55.6482 15.458 55.6504C15.458 55.6527 15.458 55.655 15.458 55.6572C15.458 55.6595 15.458 55.6617 15.458 55.664C15.458 55.6663 15.458 55.6685 15.458 55.6708C15.458 55.673 15.458 55.6753 15.458 55.6776C15.458 55.6798 15.458 55.6821 15.458 55.6844C15.458 55.6866 15.458 55.6889 15.458 55.6912C15.458 55.6934 15.458 55.6957 15.458 55.6979C15.458 55.7002 15.458 55.7025 15.458 55.7047C15.458 55.707 15.458 55.7093 15.458 55.7115C15.458 55.7138 15.458 55.7161 15.458 55.7183C15.458 55.7206 15.458 55.7229 15.458 55.7251C15.458 55.7274 15.458 55.7297 15.458 55.732C15.458 55.7342 15.458 55.7365 15.458 55.7388C15.458 55.741 15.458 55.7433 15.458 55.7456C15.458 55.7478 15.458 55.7501 15.458 55.7524C15.458 55.7547 15.458 55.7569 15.458 55.7592C15.458 55.7615 15.458 55.7638 15.458 55.766C15.458 55.7683 15.458 55.7706 15.458 55.7728C15.458 55.7751 15.458 55.7774 15.458 55.7797C15.458 55.7819 15.458 55.7842 15.458 55.7865C15.458 55.7888 15.458 55.7911 15.458 55.7933C15.458 55.7956 15.458 55.7979 15.458 55.8002C15.458 55.8024 15.458 55.8047 15.458 55.807C15.458 55.8093 15.458 55.8116 15.458 55.8138C15.458 55.8161 15.458 55.8184 15.458 55.8207C15.458 55.823 15.458 55.8252 15.458 55.8275C15.458 55.8298 15.458 55.8321 15.458 55.8344C15.458 55.8367 15.458 55.8389 15.458 55.8412C15.458 55.8435 15.458 55.8458 15.458 55.8481C15.458 55.8504 15.458 55.8526 15.458 55.8549C15.458 55.8572 15.458 55.8595 15.458 55.8618C15.458 55.8641 15.458 55.8664 15.458 55.8686C15.458 55.8709 15.458 55.8732 15.458 55.8755C15.458 55.8778 15.458 55.8801 15.458 55.8824C15.458 55.8847 15.458 55.8869 15.458 55.8892C15.458 55.8915 15.458 55.8938 15.458 55.8961C15.458 55.8984 15.458 55.9007 15.458 55.903C15.458 55.9053 15.458 55.9076 15.458 55.9098C15.458 55.9121 15.458 55.9144 15.458 55.9167C15.458 55.919 15.458 55.9213 15.458 55.9236C15.458 55.9259 15.458 55.9282 15.458 55.9305C15.458 55.9328 15.458 55.9351 15.458 55.9374C15.458 55.9397 15.458 55.942 15.458 55.9443C15.458 55.9466 15.458 55.9489 15.458 55.9512C15.458 55.9534 15.458 55.9557 15.458 55.958C15.458 55.9603 15.458 55.9626 15.458 55.9649C15.458 55.9672 15.458 55.9695 15.458 55.9718C15.458 55.9741 15.458 55.9764 15.458 55.9787C15.458 55.981 15.458 55.9833 15.458 55.9856C15.458 55.9879 15.458 55.9902 15.458 55.9926C15.458 55.9949 15.458 55.9972 15.458 55.9995C15.458 56.0018 15.458 56.0041 15.458 56.0064C15.458 56.0087 15.458 56.011 15.458 56.0133C15.458 56.0156 15.458 56.0179 15.458 56.0202C15.458 56.0225 15.458 56.0248 15.458 56.0271C15.458 56.0294 15.458 56.0317 15.458 56.034C15.458 56.0364 15.458 56.0387 15.458 56.041C15.458 56.0433 15.458 56.0456 15.458 56.0479C15.458 56.0502 15.458 56.0525 15.458 56.0548C15.458 56.0571 15.458 56.0594 15.458 56.0618C15.458 56.0641 15.458 56.0664 15.458 56.0687C15.458 56.071 15.458 56.0733 15.458 56.0756C15.458 56.0779 15.458 56.0803 15.458 56.0826C15.458 56.0849 15.458 56.0872 15.458 56.0895C15.458 56.0918 15.458 56.0941 15.458 56.0965C15.458 56.0988 15.458 56.1011 15.458 56.1034C15.458 56.1057 15.458 56.108 15.458 56.1104C15.458 56.1127 15.458 56.115 15.458 56.1173C15.458 56.1196 15.458 56.122 15.458 56.1243C15.458 56.1266 15.458 56.1289 15.458 56.1312C15.458 56.1336 15.458 56.1359 15.458 56.1382C15.458 56.1405 15.458 56.1428 15.458 56.1452C15.458 56.1475 15.458 56.1498 15.458 56.1521C15.458 56.1544 15.458 56.1568 15.458 56.1591C15.458 56.1614 15.458 56.1637 15.458 56.1661C15.458 56.1684 15.458 56.1707 15.458 56.173C15.458 56.1754 15.458 56.1777 15.458 56.18C15.458 56.1823 15.458 56.1847 15.458 56.187C15.458 56.1893 15.458 56.1917 15.458 56.194C15.458 56.1963 15.458 56.1986 15.458 56.201C15.458 56.2033 15.458 56.2056 15.458 56.208C15.458 56.2103 15.458 56.2126 15.458 56.2149C15.458 56.2173 15.458 56.2196 15.458 56.2219C15.458 56.2243 15.458 56.2266 15.458 56.2289C15.458 56.2313 15.458 56.2336 15.458 56.2359C15.458 56.2383 15.458 56.2406 15.458 56.2429C15.458 56.2453 15.458 56.2476 15.458 56.2499C15.458 56.2523 15.458 56.2546 15.458 56.2569C15.458 56.2593 15.458 56.2616 15.458 56.2639C15.458 56.2663 15.458 56.2686 15.458 56.271C15.458 56.2733 15.458 56.2756 15.458 56.278C15.458 56.2803 15.458 56.2827 15.458 56.285C15.458 56.2873 15.458 56.2897 15.458 56.292C15.458 56.2943 15.458 56.2967 15.458 56.299C15.458 56.3014 15.458 56.3037 15.458 56.3061C15.458 56.3084 15.458 56.3107 15.458 56.3131C15.458 56.3154 15.458 56.3178 15.458 56.3201C15.458 56.3225 15.458 56.3248 15.458 56.3271C15.458 56.3295 15.458 56.3318 15.458 56.3342C15.458 56.3365 15.458 56.3389 15.458 56.3412C15.458 56.3436 15.458 56.3459 15.458 56.3483C15.458 56.3506 15.458 56.353 15.458 56.3553C15.458 56.3576 15.458 56.36 15.458 56.3623C15.458 56.3647 15.458 56.367 15.458 56.3694C15.458 56.3717 15.458 56.3741 15.458 56.3764C15.458 56.3788 15.458 56.3811 15.458 56.3835C15.458 56.3858 15.458 56.3882 15.458 56.3906C15.458 56.3929 15.458 56.3953 15.458 56.3976C15.458 56.4 15.458 56.4023 15.458 56.4047C15.458 56.407 15.458 56.4094 15.458 56.4117C15.458 56.4141 15.458 56.4164 15.458 56.4188C15.458 56.4212 15.458 56.4235 15.458 56.4259C15.458 56.4282 15.458 56.4306 15.458 56.4329C15.458 56.4353 15.458 56.4377 15.458 56.44C15.458 56.4424 15.458 56.4447 15.458 56.4471C15.458 56.4495 15.458 56.4518 15.458 56.4542C15.458 56.4565 15.458 56.4589 15.458 56.4613C15.458 56.4636 15.458 56.466 15.458 56.4683C15.458 56.4707 15.458 56.4731 15.458 56.4754C15.458 56.4778 15.458 56.4802 15.458 56.4825C15.458 56.4849 15.458 56.4872 15.458 56.4896C15.458 56.492 15.458 56.4943 15.458 56.4967C15.458 56.4991 15.458 56.5014 15.458 56.5038C15.458 56.5062 15.458 56.5085 15.458 56.5109C15.458 56.5133 15.458 56.5156 15.458 56.518C15.458 56.5204 15.458 56.5227 15.458 56.5251C15.458 56.5275 15.458 56.5299 15.458 56.5322C15.458 56.5346 15.458 56.537 15.458 56.5393C15.458 56.5417 15.458 56.5441 15.458 56.5465C15.458 56.5488 15.458 56.5512 15.458 56.5536C15.458 56.5559 15.458 56.5583 15.458 56.5607C15.458 56.5631 15.458 56.5654 15.458 56.5678C15.458 56.5702 15.458 56.5726 15.458 56.5749C15.458 56.5773 15.458 56.5797 15.458 56.5821C15.458 56.5844 15.458 56.5868 15.458 56.5892C15.458 56.5916 15.458 56.5939 15.458 56.5963C15.458 56.5987 15.458 56.6011 15.458 56.6035C15.458 56.6058 15.458 56.6082 15.458 56.6106C15.458 56.613 15.458 56.6154 15.458 56.6177C15.458 56.6201 15.458 56.6225 15.458 56.6249C15.458 56.6273 15.458 56.6296 15.458 56.632C15.458 56.6344 15.458 56.6368 15.458 56.6392C15.458 56.6416 15.458 56.6439 15.458 56.6463C15.458 56.6487 15.458 56.6511 15.458 56.6535C15.458 56.6559 15.458 56.6582 15.458 56.6606C15.458 56.663 15.458 56.6654 15.458 56.6678C15.458 56.6702 15.458 56.6726 15.458 56.6749C15.458 56.6773 15.458 56.6797 15.458 56.6821C15.458 56.6845 15.458 56.6869 15.458 56.6893C15.458 56.6917 15.458 56.6941 15.458 56.6964C15.458 56.6988 15.458 56.7012 15.458 56.7036C15.458 56.706 15.458 56.7084 15.458 56.7108C15.458 56.7132 15.458 56.7156 15.458 56.718C15.458 56.7204 15.458 56.7228 15.458 56.7251C15.458 56.7275 15.458 56.7299 15.458 56.7323C15.458 56.7347 15.458 56.7371 15.458 56.7395C15.458 56.7419 15.458 56.7443 15.458 56.7467C15.458 56.7491 15.458 56.7515 15.458 56.7539C15.458 56.7563 15.458 56.7587 15.458 56.7611C15.458 56.7635 15.458 56.7659 15.458 56.7683C15.458 56.7707 15.458 56.7731 15.458 56.7755C15.458 56.7779 15.458 56.7803 15.458 56.7827C15.458 56.7851 15.458 56.7875 15.458 56.7899C15.458 56.7923 15.458 56.7947 15.458 56.7971C15.458 56.7995 15.458 56.8019 15.458 56.8043C15.458 56.8067 15.458 56.8091 15.458 56.8115C15.458 56.8139 15.458 56.8163 15.458 56.8187C15.458 56.8211 15.458 56.8235 15.458 56.8259C15.458 56.8283 15.458 56.8307 15.458 56.8332C15.458 56.8356 15.458 56.838 15.458 56.8404C15.458 56.8428 15.458 56.8452 15.458 56.8476C15.458 56.85 15.458 56.8524 15.458 56.8548C15.458 56.8572 15.458 56.8596 15.458 56.8621C15.458 56.8645 15.458 56.8669 15.458 56.8693C15.458 56.8717 15.458 56.8741 15.458 56.8765C15.458 56.8789 15.458 56.8813 15.458 56.8838C15.458 56.8862 15.458 56.8886 15.458 56.891C15.458 56.8934 15.458 56.8958 15.458 56.8982C15.458 56.9007 15.458 56.9031 15.458 56.9055C15.458 56.9079 15.458 56.9103 15.458 56.9127C15.458 56.9151 15.458 56.9176 15.458 56.92C15.458 56.9224 15.458 56.9248 15.458 56.9272C15.458 56.9297 15.458 56.9321 15.458 56.9345C15.458 56.9369 15.458 56.9393 15.458 56.9417C15.458 56.9442 15.458 56.9466 15.458 56.949C15.458 56.9514 15.458 56.9538 15.458 56.9563C15.458 56.9587 15.458 56.9611 15.458 56.9635C15.458 56.966 15.458 56.9684 15.458 56.9708C15.458 56.9732 15.458 56.9757 15.458 56.9781C15.458 56.9805 15.458 56.9829 15.458 56.9854C15.458 56.9878 15.458 56.9902 15.458 56.9926C15.458 56.9951 15.458 56.9975 15.458 56.9999C15.458 57.0023 15.458 57.0048 15.458 57.0072C15.458 57.0096 15.458 57.012 15.458 57.0145C15.458 57.0169 15.458 57.0193 15.458 57.0218C15.458 57.0242 15.458 57.0266 15.458 57.029C15.458 57.0315 15.458 57.0339 15.458 57.0363C15.458 57.0388 15.458 57.0412 15.458 57.0436C15.458 57.0461 15.458 57.0485 15.458 57.0509C15.458 57.0534 15.458 57.0558 15.458 57.0582C15.458 57.0607 15.458 57.0631 15.458 57.0655C15.458 57.068 15.458 57.0704 15.458 57.0728C15.458 57.0753 15.458 57.0777 15.458 57.0801C15.458 57.0826 15.458 57.085 15.458 57.0875C15.458 57.0899 15.458 57.0923 15.458 57.0948C15.458 57.0972 15.458 57.0997 15.458 57.1021C15.458 57.1045 15.458 57.107 15.458 57.1094C15.458 57.1118 15.458 57.1143 15.458 57.1167C15.458 57.1192 15.458 57.1216 15.458 57.1241C15.458 57.1265 15.458 57.1289 15.458 57.1314C15.458 57.1338 15.458 57.1363 15.458 57.1387C15.458 57.1412 15.458 57.1436 15.458 57.146C15.458 57.1485 15.458 57.1509 15.458 57.1534C15.458 57.1558 15.458 57.1583 15.458 57.1607C15.458 57.1632 15.458 57.1656 15.458 57.168C15.458 57.1705 15.458 57.1729 15.458 57.1754C15.458 57.1778 15.458 57.1803 15.458 57.1827C15.458 57.1852 15.458 57.1876 15.458 57.1901C15.458 57.1925 15.458 57.195 15.458 57.1974C15.458 57.1999 15.458 57.2023 15.458 57.2048C15.458 57.2072 15.458 57.2097 15.458 57.2121C15.458 57.2146 15.458 57.217 15.458 57.2195C15.458 57.222 15.458 57.2244 15.458 57.2269C15.458 57.2293 15.458 57.2318 15.458 57.2342C15.458 57.2367 15.458 57.2391 15.458 57.2416C15.458 57.244 15.458 57.2465 15.458 57.249C15.458 57.2514 15.458 57.2539 15.458 57.2563C15.458 57.2588 15.458 57.2612 15.458 57.2637C15.458 57.2662 15.458 57.2686 15.458 57.2711C15.458 57.2735 15.458 57.276 15.458 57.2785C15.458 57.2809 15.458 57.2834 15.458 57.2858C15.458 57.2883 15.458 57.2908 15.458 57.2932C15.458 57.2957 15.458 57.2981 15.458 57.3006C15.458 57.3031 15.458 57.3055 15.458 57.308H19.458C19.458 57.3055 19.458 57.3031 19.458 57.3006C19.458 57.2981 19.458 57.2957 19.458 57.2932C19.458 57.2908 19.458 57.2883 19.458 57.2858C19.458 57.2834 19.458 57.2809 19.458 57.2785C19.458 57.276 19.458 57.2735 19.458 57.2711C19.458 57.2686 19.458 57.2662 19.458 57.2637C19.458 57.2612 19.458 57.2588 19.458 57.2563C19.458 57.2539 19.458 57.2514 19.458 57.249C19.458 57.2465 19.458 57.244 19.458 57.2416C19.458 57.2391 19.458 57.2367 19.458 57.2342C19.458 57.2318 19.458 57.2293 19.458 57.2269C19.458 57.2244 19.458 57.222 19.458 57.2195C19.458 57.217 19.458 57.2146 19.458 57.2121C19.458 57.2097 19.458 57.2072 19.458 57.2048C19.458 57.2023 19.458 57.1999 19.458 57.1974C19.458 57.195 19.458 57.1925 19.458 57.1901C19.458 57.1876 19.458 57.1852 19.458 57.1827C19.458 57.1803 19.458 57.1778 19.458 57.1754C19.458 57.1729 19.458 57.1705 19.458 57.168C19.458 57.1656 19.458 57.1632 19.458 57.1607C19.458 57.1583 19.458 57.1558 19.458 57.1534C19.458 57.1509 19.458 57.1485 19.458 57.146C19.458 57.1436 19.458 57.1412 19.458 57.1387C19.458 57.1363 19.458 57.1338 19.458 57.1314C19.458 57.1289 19.458 57.1265 19.458 57.1241C19.458 57.1216 19.458 57.1192 19.458 57.1167C19.458 57.1143 19.458 57.1118 19.458 57.1094C19.458 57.107 19.458 57.1045 19.458 57.1021C19.458 57.0997 19.458 57.0972 19.458 57.0948C19.458 57.0923 19.458 57.0899 19.458 57.0875C19.458 57.085 19.458 57.0826 19.458 57.0801C19.458 57.0777 19.458 57.0753 19.458 57.0728C19.458 57.0704 19.458 57.068 19.458 57.0655C19.458 57.0631 19.458 57.0607 19.458 57.0582C19.458 57.0558 19.458 57.0534 19.458 57.0509C19.458 57.0485 19.458 57.0461 19.458 57.0436C19.458 57.0412 19.458 57.0388 19.458 57.0363C19.458 57.0339 19.458 57.0315 19.458 57.029C19.458 57.0266 19.458 57.0242 19.458 57.0218C19.458 57.0193 19.458 57.0169 19.458 57.0145C19.458 57.012 19.458 57.0096 19.458 57.0072C19.458 57.0048 19.458 57.0023 19.458 56.9999C19.458 56.9975 19.458 56.9951 19.458 56.9926C19.458 56.9902 19.458 56.9878 19.458 56.9854C19.458 56.9829 19.458 56.9805 19.458 56.9781C19.458 56.9757 19.458 56.9732 19.458 56.9708C19.458 56.9684 19.458 56.966 19.458 56.9635C19.458 56.9611 19.458 56.9587 19.458 56.9563C19.458 56.9538 19.458 56.9514 19.458 56.949C19.458 56.9466 19.458 56.9442 19.458 56.9417C19.458 56.9393 19.458 56.9369 19.458 56.9345C19.458 56.9321 19.458 56.9297 19.458 56.9272C19.458 56.9248 19.458 56.9224 19.458 56.92C19.458 56.9176 19.458 56.9151 19.458 56.9127C19.458 56.9103 19.458 56.9079 19.458 56.9055C19.458 56.9031 19.458 56.9007 19.458 56.8982C19.458 56.8958 19.458 56.8934 19.458 56.891C19.458 56.8886 19.458 56.8862 19.458 56.8838C19.458 56.8813 19.458 56.8789 19.458 56.8765C19.458 56.8741 19.458 56.8717 19.458 56.8693C19.458 56.8669 19.458 56.8645 19.458 56.8621C19.458 56.8596 19.458 56.8572 19.458 56.8548C19.458 56.8524 19.458 56.85 19.458 56.8476C19.458 56.8452 19.458 56.8428 19.458 56.8404C19.458 56.838 19.458 56.8356 19.458 56.8332C19.458 56.8307 19.458 56.8283 19.458 56.8259C19.458 56.8235 19.458 56.8211 19.458 56.8187C19.458 56.8163 19.458 56.8139 19.458 56.8115C19.458 56.8091 19.458 56.8067 19.458 56.8043C19.458 56.8019 19.458 56.7995 19.458 56.7971C19.458 56.7947 19.458 56.7923 19.458 56.7899C19.458 56.7875 19.458 56.7851 19.458 56.7827C19.458 56.7803 19.458 56.7779 19.458 56.7755C19.458 56.7731 19.458 56.7707 19.458 56.7683C19.458 56.7659 19.458 56.7635 19.458 56.7611C19.458 56.7587 19.458 56.7563 19.458 56.7539C19.458 56.7515 19.458 56.7491 19.458 56.7467C19.458 56.7443 19.458 56.7419 19.458 56.7395C19.458 56.7371 19.458 56.7347 19.458 56.7323C19.458 56.7299 19.458 56.7275 19.458 56.7251C19.458 56.7228 19.458 56.7204 19.458 56.718C19.458 56.7156 19.458 56.7132 19.458 56.7108C19.458 56.7084 19.458 56.706 19.458 56.7036C19.458 56.7012 19.458 56.6988 19.458 56.6964C19.458 56.6941 19.458 56.6917 19.458 56.6893C19.458 56.6869 19.458 56.6845 19.458 56.6821C19.458 56.6797 19.458 56.6773 19.458 56.6749C19.458 56.6726 19.458 56.6702 19.458 56.6678C19.458 56.6654 19.458 56.663 19.458 56.6606C19.458 56.6582 19.458 56.6559 19.458 56.6535C19.458 56.6511 19.458 56.6487 19.458 56.6463C19.458 56.6439 19.458 56.6416 19.458 56.6392C19.458 56.6368 19.458 56.6344 19.458 56.632C19.458 56.6296 19.458 56.6273 19.458 56.6249C19.458 56.6225 19.458 56.6201 19.458 56.6177C19.458 56.6154 19.458 56.613 19.458 56.6106C19.458 56.6082 19.458 56.6058 19.458 56.6035C19.458 56.6011 19.458 56.5987 19.458 56.5963C19.458 56.5939 19.458 56.5916 19.458 56.5892C19.458 56.5868 19.458 56.5844 19.458 56.5821C19.458 56.5797 19.458 56.5773 19.458 56.5749C19.458 56.5726 19.458 56.5702 19.458 56.5678C19.458 56.5654 19.458 56.5631 19.458 56.5607C19.458 56.5583 19.458 56.5559 19.458 56.5536C19.458 56.5512 19.458 56.5488 19.458 56.5465C19.458 56.5441 19.458 56.5417 19.458 56.5393C19.458 56.537 19.458 56.5346 19.458 56.5322C19.458 56.5299 19.458 56.5275 19.458 56.5251C19.458 56.5227 19.458 56.5204 19.458 56.518C19.458 56.5156 19.458 56.5133 19.458 56.5109C19.458 56.5085 19.458 56.5062 19.458 56.5038C19.458 56.5014 19.458 56.4991 19.458 56.4967C19.458 56.4943 19.458 56.492 19.458 56.4896C19.458 56.4872 19.458 56.4849 19.458 56.4825C19.458 56.4802 19.458 56.4778 19.458 56.4754C19.458 56.4731 19.458 56.4707 19.458 56.4683C19.458 56.466 19.458 56.4636 19.458 56.4613C19.458 56.4589 19.458 56.4565 19.458 56.4542C19.458 56.4518 19.458 56.4495 19.458 56.4471C19.458 56.4447 19.458 56.4424 19.458 56.44C19.458 56.4377 19.458 56.4353 19.458 56.4329C19.458 56.4306 19.458 56.4282 19.458 56.4259C19.458 56.4235 19.458 56.4212 19.458 56.4188C19.458 56.4164 19.458 56.4141 19.458 56.4117C19.458 56.4094 19.458 56.407 19.458 56.4047C19.458 56.4023 19.458 56.4 19.458 56.3976C19.458 56.3953 19.458 56.3929 19.458 56.3906C19.458 56.3882 19.458 56.3858 19.458 56.3835C19.458 56.3811 19.458 56.3788 19.458 56.3764C19.458 56.3741 19.458 56.3717 19.458 56.3694C19.458 56.367 19.458 56.3647 19.458 56.3623C19.458 56.36 19.458 56.3576 19.458 56.3553C19.458 56.353 19.458 56.3506 19.458 56.3483C19.458 56.3459 19.458 56.3436 19.458 56.3412C19.458 56.3389 19.458 56.3365 19.458 56.3342C19.458 56.3318 19.458 56.3295 19.458 56.3271C19.458 56.3248 19.458 56.3225 19.458 56.3201C19.458 56.3178 19.458 56.3154 19.458 56.3131C19.458 56.3107 19.458 56.3084 19.458 56.3061C19.458 56.3037 19.458 56.3014 19.458 56.299C19.458 56.2967 19.458 56.2943 19.458 56.292C19.458 56.2897 19.458 56.2873 19.458 56.285C19.458 56.2827 19.458 56.2803 19.458 56.278C19.458 56.2756 19.458 56.2733 19.458 56.271C19.458 56.2686 19.458 56.2663 19.458 56.2639C19.458 56.2616 19.458 56.2593 19.458 56.2569C19.458 56.2546 19.458 56.2523 19.458 56.2499C19.458 56.2476 19.458 56.2453 19.458 56.2429C19.458 56.2406 19.458 56.2383 19.458 56.2359C19.458 56.2336 19.458 56.2313 19.458 56.2289C19.458 56.2266 19.458 56.2243 19.458 56.2219C19.458 56.2196 19.458 56.2173 19.458 56.2149C19.458 56.2126 19.458 56.2103 19.458 56.208C19.458 56.2056 19.458 56.2033 19.458 56.201C19.458 56.1986 19.458 56.1963 19.458 56.194C19.458 56.1917 19.458 56.1893 19.458 56.187C19.458 56.1847 19.458 56.1823 19.458 56.18C19.458 56.1777 19.458 56.1754 19.458 56.173C19.458 56.1707 19.458 56.1684 19.458 56.1661C19.458 56.1637 19.458 56.1614 19.458 56.1591C19.458 56.1568 19.458 56.1544 19.458 56.1521C19.458 56.1498 19.458 56.1475 19.458 56.1452C19.458 56.1428 19.458 56.1405 19.458 56.1382C19.458 56.1359 19.458 56.1336 19.458 56.1312C19.458 56.1289 19.458 56.1266 19.458 56.1243C19.458 56.122 19.458 56.1196 19.458 56.1173C19.458 56.115 19.458 56.1127 19.458 56.1104C19.458 56.108 19.458 56.1057 19.458 56.1034C19.458 56.1011 19.458 56.0988 19.458 56.0965C19.458 56.0941 19.458 56.0918 19.458 56.0895C19.458 56.0872 19.458 56.0849 19.458 56.0826C19.458 56.0803 19.458 56.0779 19.458 56.0756C19.458 56.0733 19.458 56.071 19.458 56.0687C19.458 56.0664 19.458 56.0641 19.458 56.0618C19.458 56.0594 19.458 56.0571 19.458 56.0548C19.458 56.0525 19.458 56.0502 19.458 56.0479C19.458 56.0456 19.458 56.0433 19.458 56.041C19.458 56.0387 19.458 56.0364 19.458 56.034C19.458 56.0317 19.458 56.0294 19.458 56.0271C19.458 56.0248 19.458 56.0225 19.458 56.0202C19.458 56.0179 19.458 56.0156 19.458 56.0133C19.458 56.011 19.458 56.0087 19.458 56.0064C19.458 56.0041 19.458 56.0018 19.458 55.9995C19.458 55.9972 19.458 55.9949 19.458 55.9926C19.458 55.9902 19.458 55.9879 19.458 55.9856C19.458 55.9833 19.458 55.981 19.458 55.9787C19.458 55.9764 19.458 55.9741 19.458 55.9718C19.458 55.9695 19.458 55.9672 19.458 55.9649C19.458 55.9626 19.458 55.9603 19.458 55.958C19.458 55.9557 19.458 55.9534 19.458 55.9512C19.458 55.9489 19.458 55.9466 19.458 55.9443C19.458 55.942 19.458 55.9397 19.458 55.9374C19.458 55.9351 19.458 55.9328 19.458 55.9305C19.458 55.9282 19.458 55.9259 19.458 55.9236C19.458 55.9213 19.458 55.919 19.458 55.9167C19.458 55.9144 19.458 55.9121 19.458 55.9098C19.458 55.9076 19.458 55.9053 19.458 55.903C19.458 55.9007 19.458 55.8984 19.458 55.8961C19.458 55.8938 19.458 55.8915 19.458 55.8892C19.458 55.8869 19.458 55.8847 19.458 55.8824C19.458 55.8801 19.458 55.8778 19.458 55.8755C19.458 55.8732 19.458 55.8709 19.458 55.8686C19.458 55.8664 19.458 55.8641 19.458 55.8618C19.458 55.8595 19.458 55.8572 19.458 55.8549C19.458 55.8526 19.458 55.8504 19.458 55.8481C19.458 55.8458 19.458 55.8435 19.458 55.8412C19.458 55.8389 19.458 55.8367 19.458 55.8344C19.458 55.8321 19.458 55.8298 19.458 55.8275C19.458 55.8252 19.458 55.823 19.458 55.8207C19.458 55.8184 19.458 55.8161 19.458 55.8138C19.458 55.8116 19.458 55.8093 19.458 55.807C19.458 55.8047 19.458 55.8024 19.458 55.8002C19.458 55.7979 19.458 55.7956 19.458 55.7933C19.458 55.7911 19.458 55.7888 19.458 55.7865C19.458 55.7842 19.458 55.7819 19.458 55.7797C19.458 55.7774 19.458 55.7751 19.458 55.7728C19.458 55.7706 19.458 55.7683 19.458 55.766C19.458 55.7638 19.458 55.7615 19.458 55.7592C19.458 55.7569 19.458 55.7547 19.458 55.7524C19.458 55.7501 19.458 55.7478 19.458 55.7456C19.458 55.7433 19.458 55.741 19.458 55.7388C19.458 55.7365 19.458 55.7342 19.458 55.732C19.458 55.7297 19.458 55.7274 19.458 55.7251C19.458 55.7229 19.458 55.7206 19.458 55.7183C19.458 55.7161 19.458 55.7138 19.458 55.7115C19.458 55.7093 19.458 55.707 19.458 55.7047C19.458 55.7025 19.458 55.7002 19.458 55.6979C19.458 55.6957 19.458 55.6934 19.458 55.6912C19.458 55.6889 19.458 55.6866 19.458 55.6844C19.458 55.6821 19.458 55.6798 19.458 55.6776C19.458 55.6753 19.458 55.673 19.458 55.6708C19.458 55.6685 19.458 55.6663 19.458 55.664C19.458 55.6617 19.458 55.6595 19.458 55.6572C19.458 55.655 19.458 55.6527 19.458 55.6504C19.458 55.6482 19.458 55.6459 19.458 55.6437C19.458 55.6414 19.458 55.6392 19.458 55.6369C19.458 55.6346 19.458 55.6324 19.458 55.6301C19.458 55.6279 19.458 55.6256 19.458 55.6234C19.458 55.6211 19.458 55.6189 19.458 55.6166C19.458 55.6143 19.458 55.6121 19.458 55.6098C19.458 55.6076 19.458 55.6053 19.458 55.6031C19.458 55.6008 19.458 55.5986 19.458 55.5963C19.458 55.5941 19.458 55.5918 19.458 55.5896C19.458 55.5873 19.458 55.5851 19.458 55.5828C19.458 55.5806 19.458 55.5783 19.458 55.5761C19.458 55.5738 19.458 55.5716 19.458 55.5693C19.458 55.5671 19.458 55.5648 19.458 55.5626C19.458 55.5603 19.458 55.5581 19.458 55.5558C19.458 55.5536 19.458 55.5513 19.458 55.5491C19.458 55.5468 19.458 55.5446 19.458 55.5424C19.458 55.5401 19.458 55.5379 19.458 55.5356C19.458 55.5334 19.458 55.5311 19.458 55.5289C19.458 55.5267 19.458 55.5244 19.458 55.5222C19.458 55.5199 19.458 55.5177 19.458 55.5154C19.458 55.5132 19.458 55.511 19.458 55.5087C19.458 55.5065 19.458 55.5042 19.458 55.502C19.458 55.4998 19.458 55.4975 19.458 55.4953C19.458 55.493 19.458 55.4908 19.458 55.4886C19.458 55.4863 19.458 55.4841 19.458 55.4819C19.458 55.4796 19.458 55.4774 19.458 55.4751C19.458 55.4729 19.458 55.4707 19.458 55.4684C19.458 55.4662 19.458 55.464 19.458 55.4617C19.458 55.4595 19.458 55.4573 19.458 55.455C19.458 55.4528 19.458 55.4506 19.458 55.4483C19.458 55.4461 19.458 55.4439 19.458 55.4416C19.458 55.4394 19.458 55.4372 19.458 55.4349C19.458 55.4327 19.458 55.4305 19.458 55.4283C19.458 55.426 19.458 55.4238 19.458 55.4216C19.458 55.4193 19.458 55.4171 19.458 55.4149C19.458 55.4126 19.458 55.4104 19.458 55.4082C19.458 55.406 19.458 55.4037 19.458 55.4015C19.458 55.3993 19.458 55.3971 19.458 55.3948C19.458 55.3926 19.458 55.3904 19.458 55.3882C19.458 55.3859 19.458 55.3837 19.458 55.3815C19.458 55.3793 19.458 55.377 19.458 55.3748C19.458 55.3726 19.458 55.3704 19.458 55.3681C19.458 55.3659 19.458 55.3637 19.458 55.3615C19.458 55.3593 19.458 55.357 19.458 55.3548C19.458 55.3526 19.458 55.3504 19.458 55.3482C19.458 55.3459 19.458 55.3437 19.458 55.3415C19.458 55.3393 19.458 55.3371 19.458 55.3348C19.458 55.3326 19.458 55.3304 19.458 55.3282C19.458 55.326 19.458 55.3238 19.458 55.3215C19.458 55.3193 19.458 55.3171 19.458 55.3149C19.458 55.3127 19.458 55.3105 19.458 55.3083C19.458 55.306 19.458 55.3038 19.458 55.3016C19.458 55.2994 19.458 55.2972 19.458 55.295C19.458 55.2928 19.458 55.2906 19.458 55.2883C19.458 55.2861 19.458 55.2839 19.458 55.2817C19.458 55.2795 19.458 55.2773 19.458 55.2751C19.458 55.2729 19.458 55.2707 19.458 55.2684C19.458 55.2662 19.458 55.264 19.458 55.2618C19.458 55.2596 19.458 55.2574 19.458 55.2552C19.458 55.253 19.458 55.2508 19.458 55.2486C19.458 55.2464 19.458 55.2442 19.458 55.242C19.458 55.2398 19.458 55.2376 19.458 55.2353C19.458 55.2331 19.458 55.2309 19.458 55.2287C19.458 55.2265 19.458 55.2243 19.458 55.2221C19.458 55.2199 19.458 55.2177 19.458 55.2155C19.458 55.2133 19.458 55.2111 19.458 55.2089C19.458 55.2067 19.458 55.2045 19.458 55.2023C19.458 55.2001 19.458 55.1979 19.458 55.1957C19.458 55.1935 19.458 55.1913 19.458 55.1891C19.458 55.1869 19.458 55.1847 19.458 55.1825C19.458 55.1803 19.458 55.1781 19.458 55.1759C19.458 55.1737 19.458 55.1715 19.458 55.1693C19.458 55.1671 19.458 55.165 19.458 55.1628C19.458 55.1606 19.458 55.1584 19.458 55.1562C19.458 55.154 19.458 55.1518 19.458 55.1496C19.458 55.1474 19.458 55.1452 19.458 55.143C19.458 55.1408 19.458 55.1386 19.458 55.1364C19.458 55.1342 19.458 55.1321 19.458 55.1299C19.458 55.1277 19.458 55.1255 19.458 55.1233C19.458 55.1211 19.458 55.1189 19.458 55.1167C19.458 55.1145 19.458 55.1123 19.458 55.1102C19.458 55.108 19.458 55.1058 19.458 55.1036C19.458 55.1014 19.458 55.0992 19.458 55.097C19.458 55.0949 19.458 55.0927 19.458 55.0905C19.458 55.0883 19.458 55.0861 19.458 55.0839C19.458 55.0817 19.458 55.0796 19.458 55.0774C19.458 55.0752 19.458 55.073 19.458 55.0708C19.458 55.0686 19.458 55.0665 19.458 55.0643C19.458 55.0621 19.458 55.0599 19.458 55.0577C19.458 55.0556 19.458 55.0534 19.458 55.0512C19.458 55.049 19.458 55.0468 19.458 55.0447C19.458 55.0425 19.458 55.0403 19.458 55.0381C19.458 55.0359 19.458 55.0338 19.458 55.0316C19.458 55.0294 19.458 55.0272 19.458 55.0251C19.458 55.0229 19.458 55.0207 19.458 55.0185C19.458 55.0163 19.458 55.0142 19.458 55.012C19.458 55.0098 19.458 55.0076 19.458 55.0055C19.458 55.0033 19.458 55.0011 19.458 54.999C19.458 54.9968 19.458 54.9946 19.458 54.9924C19.458 54.9903 19.458 54.9881 19.458 54.9859C19.458 54.9837 19.458 54.9816 19.458 54.9794C19.458 54.9772 19.458 54.9751 19.458 54.9729C19.458 54.9707 19.458 54.9686 19.458 54.9664C19.458 54.9642 19.458 54.9621 19.458 54.9599C19.458 54.9577 19.458 54.9555 19.458 54.9534C19.458 54.9512 19.458 54.949 19.458 54.9469C19.458 54.9447 19.458 54.9426 19.458 54.9404C19.458 54.9382 19.458 54.9361 19.458 54.9339C19.458 54.9317 19.458 54.9296 19.458 54.9274C19.458 54.9252 19.458 54.9231 19.458 54.9209C19.458 54.9187 19.458 54.9166 19.458 54.9144C19.458 54.9123 19.458 54.9101 19.458 54.9079C19.458 54.9058 19.458 54.9036 19.458 54.9015C19.458 54.8993 19.458 54.8971 19.458 54.895C19.458 54.8928 19.458 54.8907 19.458 54.8885C19.458 54.8863 19.458 54.8842 19.458 54.882C19.458 54.8799 19.458 54.8777 19.458 54.8756C19.458 54.8734 19.458 54.8712 19.458 54.8691C19.458 54.8669 19.458 54.8648 19.458 54.8626C19.458 54.8605 19.458 54.8583 19.458 54.8562C19.458 54.854 19.458 54.8519 19.458 54.8497C19.458 54.8476 19.458 54.8454 19.458 54.8432C19.458 54.8411 19.458 54.8389 19.458 54.8368C19.458 54.8346 19.458 54.8325 19.458 54.8303C19.458 54.8282 19.458 54.826 19.458 54.8239C19.458 54.8217 19.458 54.8196 19.458 54.8174C19.458 54.8153 19.458 54.8131 19.458 54.811C19.458 54.8088 19.458 54.8067 19.458 54.8046C19.458 54.8024 19.458 54.8003 19.458 54.7981C19.458 54.796 19.458 54.7938 19.458 54.7917C19.458 54.7895 19.458 54.7874 19.458 54.7852C19.458 54.7831 19.458 54.781 19.458 54.7788C19.458 54.7767 19.458 54.7745 19.458 54.7724C19.458 54.7702 19.458 54.7681 19.458 54.766C19.458 54.7638 19.458 54.7617 19.458 54.7595C19.458 54.7574 19.458 54.7553 19.458 54.7531C19.458 54.751 19.458 54.7488 19.458 54.7467C19.458 54.7446 19.458 54.7424 19.458 54.7403C19.458 54.7381 19.458 54.736 19.458 54.7339C19.458 54.7317 19.458 54.7296 19.458 54.7275C19.458 54.7253 19.458 54.7232 19.458 54.7211C19.458 54.7189 19.458 54.7168 19.458 54.7146C19.458 54.7125 19.458 54.7104 19.458 54.7082C19.458 54.7061 19.458 54.704 19.458 54.7018C19.458 54.6997 19.458 54.6976 19.458 54.6954C19.458 54.6933 19.458 54.6912 19.458 54.6891C19.458 54.6869 19.458 54.6848 19.458 54.6827C19.458 54.6805 19.458 54.6784 19.458 54.6763C19.458 54.6741 19.458 54.672 19.458 54.6699C19.458 54.6678 19.458 54.6656 19.458 54.6635C19.458 54.6614 19.458 54.6592 19.458 54.6571C19.458 54.655 19.458 54.6529 19.458 54.6507C19.458 54.6486 19.458 54.6465 19.458 54.6444C19.458 54.6422 19.458 54.6401 19.458 54.638C19.458 54.6359 19.458 54.6337 19.458 54.6316C19.458 54.6295 19.458 54.6274 19.458 54.6252C19.458 54.6231 19.458 54.621 19.458 54.6189C19.458 54.6168 19.458 54.6146 19.458 54.6125C19.458 54.6104 19.458 54.6083 19.458 54.6062C19.458 54.604 19.458 54.6019 19.458 54.5998C19.458 54.5977 19.458 54.5956 19.458 54.5934C19.458 54.5913 19.458 54.5892 19.458 54.5871C19.458 54.585 19.458 54.5829 19.458 54.5807C19.458 54.5786 19.458 54.5765 19.458 54.5744C19.458 54.5723 19.458 54.5702 19.458 54.5681C19.458 54.5659 19.458 54.5638 19.458 54.5617C19.458 54.5596 19.458 54.5575 19.458 54.5554C19.458 54.5533 19.458 54.5511 19.458 54.549C19.458 54.5469 19.458 54.5448 19.458 54.5427C19.458 54.5406 19.458 54.5385 19.458 54.5364C19.458 54.5343 19.458 54.5321 19.458 54.53C19.458 54.5279 19.458 54.5258 19.458 54.5237C19.458 54.5216 19.458 54.5195 19.458 54.5174C19.458 54.5153 19.458 54.5132 19.458 54.5111C19.458 54.509 19.458 54.5069 19.458 54.5047C19.458 54.5026 19.458 54.5005 19.458 54.4984C19.458 54.4963 19.458 54.4942 19.458 54.4921C19.458 54.49 19.458 54.4879 19.458 54.4858C19.458 54.4837 19.458 54.4816 19.458 54.4795C19.458 54.4774 19.458 54.4753 19.458 54.4732C19.458 54.4711 19.458 54.469 19.458 54.4669C19.458 54.4648 19.458 54.4627 19.458 54.4606C19.458 54.4585 19.458 54.4564 19.458 54.4543C19.458 54.4522 19.458 54.4501 19.458 54.448C19.458 54.4459 19.458 54.4438 19.458 54.4417C19.458 54.4396 19.458 54.4375 19.458 54.4354C19.458 54.4333 19.458 54.4312 19.458 54.4291C19.458 54.427 19.458 54.4249 19.458 54.4228C19.458 54.4208 19.458 54.4187 19.458 54.4166C19.458 54.4145 19.458 54.4124 19.458 54.4103C19.458 54.4082 19.458 54.4061 19.458 54.404C19.458 54.4019 19.458 54.3998 19.458 54.3977C19.458 54.3956 19.458 54.3936 19.458 54.3915C19.458 54.3894 19.458 54.3873 19.458 54.3852C19.458 54.3831 19.458 54.381 19.458 54.3789C19.458 54.3768 19.458 54.3748 19.458 54.3727C19.458 54.3706 19.458 54.3685 19.458 54.3664C19.458 54.3643 19.458 54.3622 19.458 54.3601C19.458 54.3581 19.458 54.356 19.458 54.3539C19.458 54.3518 19.458 54.3497 19.458 54.3476C19.458 54.3456 19.458 54.3435 19.458 54.3414C19.458 54.3393 19.458 54.3372 19.458 54.3351C19.458 54.3331 19.458 54.331 19.458 54.3289C19.458 54.3268 19.458 54.3247 19.458 54.3227C19.458 54.3206 19.458 54.3185 19.458 54.3164C19.458 54.3143 19.458 54.3123 19.458 54.3102C19.458 54.3081 19.458 54.306 19.458 54.3039C19.458 54.3019 19.458 54.2998 19.458 54.2977C19.458 54.2956 19.458 54.2936 19.458 54.2915C19.458 54.2894 19.458 54.2873 19.458 54.2853C19.458 54.2832 19.458 54.2811 19.458 54.279C19.458 54.277 19.458 54.2749 19.458 54.2728C19.458 54.2707 19.458 54.2687 19.458 54.2666C19.458 54.2645 19.458 54.2624 19.458 54.2604C19.458 54.2583 19.458 54.2562 19.458 54.2542C19.458 54.2521 19.458 54.25 19.458 54.2479C19.458 54.2459 19.458 54.2438 19.458 54.2417C19.458 54.2397 19.458 54.2376 19.458 54.2355C19.458 54.2335 19.458 54.2314 19.458 54.2293C19.458 54.2273 19.458 54.2252 19.458 54.2231C19.458 54.2211 19.458 54.219 19.458 54.2169C19.458 54.2149 19.458 54.2128 19.458 54.2107C19.458 54.2087 19.458 54.2066 19.458 54.2045C19.458 54.2025 19.458 54.2004 19.458 54.1984C19.458 54.1963 19.458 54.1942 19.458 54.1922C19.458 54.1901 19.458 54.188 19.458 54.186C19.458 54.1839 19.458 54.1819 19.458 54.1798C19.458 54.1777 19.458 54.1757 19.458 54.1736C19.458 54.1716 19.458 54.1695 19.458 54.1674C19.458 54.1654 19.458 54.1633 19.458 54.1613C19.458 54.1592 19.458 54.1572 19.458 54.1551C19.458 54.153 19.458 54.151 19.458 54.1489C19.458 54.1469 19.458 54.1448 19.458 54.1428C19.458 54.1407 19.458 54.1387 19.458 54.1366C19.458 54.1345 19.458 54.1325 19.458 54.1304C19.458 54.1284 19.458 54.1263 19.458 54.1243C19.458 54.1222 19.458 54.1202 19.458 54.1181C19.458 54.1161 19.458 54.114 19.458 54.112C19.458 54.1099 19.458 54.1079 19.458 54.1058C19.458 54.1038 19.458 54.1017 19.458 54.0997C19.458 54.0976 19.458 54.0956 19.458 54.0935C19.458 54.0915 19.458 54.0894 19.458 54.0874C19.458 54.0853 19.458 54.0833 19.458 54.0812C19.458 54.0792 19.458 54.0772 19.458 54.0751C19.458 54.0731 19.458 54.071 19.458 54.069C19.458 54.0669 19.458 54.0649 19.458 54.0628C19.458 54.0608 19.458 54.0588 19.458 54.0567C19.458 54.0547 19.458 54.0526 19.458 54.0506C19.458 54.0485 19.458 54.0465 19.458 54.0445C19.458 54.0424 19.458 54.0404 19.458 54.0383C19.458 54.0363 19.458 54.0343 19.458 54.0322C19.458 54.0302 19.458 54.0281 19.458 54.0261C19.458 54.0241 19.458 54.022 19.458 54.02C19.458 54.018 19.458 54.0159 19.458 54.0139C19.458 54.0118 19.458 54.0098 19.458 54.0078C19.458 54.0057 19.458 54.0037 19.458 54.0017C19.458 53.9996 19.458 53.9976 19.458 53.9956C19.458 53.9935 19.458 53.9915 19.458 53.9895C19.458 53.9874 19.458 53.9854 19.458 53.9834C19.458 53.9813 19.458 53.9793 19.458 53.9773C19.458 53.9752 19.458 53.9732 19.458 53.9712C19.458 53.9691 19.458 53.9671 19.458 53.9651C19.458 53.9631 19.458 53.961 19.458 53.959C19.458 53.957 19.458 53.9549 19.458 53.9529C19.458 53.9509 19.458 53.9489 19.458 53.9468C19.458 53.9448 19.458 53.9428 19.458 53.9407C19.458 53.9387 19.458 53.9367 19.458 53.9347C19.458 53.9326 19.458 53.9306 19.458 53.9286C19.458 53.9266 19.458 53.9246 19.458 53.9225C19.458 53.9205 19.458 53.9185 19.458 53.9165C19.458 53.9144 19.458 53.9124 19.458 53.9104C19.458 53.9084 19.458 53.9063 19.458 53.9043C19.458 53.9023 19.458 53.9003 19.458 53.8983C19.458 53.8962 19.458 53.8942 19.458 53.8922C19.458 53.8902 19.458 53.8882 19.458 53.8862C19.458 53.8841 19.458 53.8821 19.458 53.8801C19.458 53.8781 19.458 53.8761 19.458 53.874C19.458 53.872 19.458 53.87 19.458 53.868H15.458ZM15.4601 57.3988C15.5229 58.7817 15.7114 60.1609 16.0237 61.5352L19.9243 60.6488C19.6633 59.5004 19.5077 58.357 19.4559 57.2172L15.4601 57.3988ZM19.3386 59.6299L15.4686 56.0179L12.7394 58.9421L16.6094 62.5541L19.3386 59.6299ZM15.902 58.3559C16.8842 56.3398 18.13 54.6995 19.6279 53.4014L17.0081 50.3786C15.066 52.0618 13.5025 54.1482 12.306 56.6041L15.902 58.3559ZM19.6559 53.3766C21.1504 52.0315 22.9313 51.0214 25.0285 50.3565L23.8195 46.5435C21.2154 47.3692 18.9256 48.6525 16.9801 50.4034L19.6559 53.3766ZM25.0565 50.3474C27.236 49.6208 29.6569 49.246 32.336 49.246V45.246C29.2818 45.246 26.428 45.6738 23.7915 46.5526L25.0565 50.3474ZM32.336 49.246C35.9637 49.246 39.1486 49.9644 41.9336 51.3569L43.7224 47.7791C40.3154 46.0756 36.5056 45.246 32.336 45.246V49.246ZM41.9336 51.3569C44.723 52.7516 46.9149 54.6947 48.5495 57.1976L51.8985 55.0104C49.8637 51.8946 47.125 49.4804 43.7224 47.7791L41.9336 51.3569ZM48.5651 57.2212C50.2092 59.6624 51.062 62.5596 51.062 65.994H55.062C55.062 61.8604 54.0228 58.1643 51.8829 54.9868L48.5651 57.2212ZM51.062 65.994C51.062 69.7091 50.1263 72.8625 48.3116 75.5342L51.6204 77.7818C53.9337 74.3761 55.062 70.4203 55.062 65.994H51.062ZM48.3068 75.5412C46.5105 78.2101 44.0677 80.3047 40.9257 81.8233L42.6663 85.4247C46.4043 83.618 49.4082 81.0686 51.6252 77.7748L48.3068 75.5412ZM40.9385 81.8171C37.8609 83.2777 34.3194 84.032 30.272 84.032V88.032C34.8246 88.032 38.9658 87.181 42.6535 85.4309L40.9385 81.8171ZM29.498 77.626C31.6832 77.626 33.6981 77.2398 35.4961 76.4099L33.8199 72.7781C32.6366 73.3242 31.2115 73.626 29.498 73.626V77.626ZM35.5256 76.396C37.3934 75.4967 38.8936 74.1879 39.966 72.472L36.574 70.352C35.9264 71.3881 35.0186 72.2006 33.7904 72.792L35.5256 76.396ZM39.966 72.472C41.0434 70.7481 41.56 68.7972 41.56 66.682H37.56C37.56 68.1215 37.2166 69.3239 36.574 70.352L39.966 72.472ZM41.56 66.682C41.56 63.4148 40.4081 60.6507 38.016 58.621L35.428 61.671C36.8199 62.852 37.56 64.4452 37.56 66.682H41.56ZM38.065 58.664C35.7767 56.5903 32.7891 55.652 29.326 55.652V59.652C32.0549 59.652 33.9979 60.3764 35.379 61.628L38.065 58.664ZM29.326 55.652C27.0002 55.652 24.8677 56.1055 22.9874 57.0805L24.8286 60.6315C26.0443 60.0012 27.5238 59.652 29.326 59.652V55.652ZM23.0404 57.054C21.1828 57.9484 19.6698 59.2427 18.5459 60.9286L21.8741 63.1474C22.5848 62.0813 23.5372 61.2543 24.7756 60.658L23.0404 57.054ZM18.5348 60.9455C17.4363 62.6298 16.92 64.5683 16.92 66.682H20.92C20.92 65.241 21.2637 64.0836 21.8852 63.1305L18.5348 60.9455ZM16.92 66.682C16.92 68.7533 17.4432 70.6728 18.514 72.386L21.906 70.266C21.2568 69.2272 20.92 68.0507 20.92 66.682H16.92ZM18.5348 72.4185C19.6029 74.0564 21.0809 75.3395 22.9014 76.2835L24.7426 72.7325C23.4671 72.0711 22.5371 71.233 21.8852 70.2335L18.5348 72.4185ZM22.9544 76.31C24.8418 77.2188 27.0487 77.626 29.498 77.626V73.626C27.4753 73.626 25.8982 73.2879 24.6896 72.706L22.9544 76.31ZM78.8378 82.42L77.7689 84.1104L77.7778 84.116L77.7868 84.1216L78.8378 82.42ZM69.6358 71.756L67.8338 72.6236L69.6358 71.756ZM69.6358 38.044L71.4378 38.9116L71.4378 38.9116L69.6358 38.044ZM78.8378 27.466L79.8888 29.1676L79.8978 29.162L79.9067 29.1564L78.8378 27.466ZM105.326 27.466L104.246 29.1492L104.26 29.1585L104.275 29.1676L105.326 27.466ZM114.528 38.044L112.726 38.9116L112.726 38.9116L114.528 38.044ZM114.528 71.756L112.726 70.8884L112.726 70.8884L114.528 71.756ZM105.326 82.42L106.388 84.1146L106.395 84.1104L105.326 82.42ZM98.1878 72.272L96.9961 70.6658L96.9835 70.6752L96.9709 70.6848L98.1878 72.272ZM102.316 65.994L100.434 65.3166L100.428 65.3333L100.422 65.3502L102.316 65.994ZM102.316 43.806L100.422 44.4498L100.428 44.4667L100.434 44.4834L102.316 43.806ZM98.1878 37.528L96.9709 39.1152L96.9835 39.1248L96.9961 39.1342L98.1878 37.528ZM85.9758 37.528L84.7841 35.9218L84.7715 35.9312L84.7589 35.9408L85.9758 37.528ZM81.8478 43.806L79.966 43.1286L79.96 43.1453L79.9543 43.1622L81.8478 43.806ZM81.8478 65.994L79.9543 66.6378L79.96 66.6547L79.966 66.6714L81.8478 65.994ZM85.9758 72.272L84.7589 73.8592L84.7715 73.8688L84.7841 73.8782L85.9758 72.272ZM92.0818 84.032C87.493 84.032 83.4476 82.9165 79.8888 80.7184L77.7868 84.1216C82.0254 86.7395 86.8093 88.032 92.0818 88.032V84.032ZM79.9067 80.7296C76.3609 78.4874 73.531 75.2357 71.4378 70.8884L67.8338 72.6236C70.2127 77.5643 73.5174 81.422 77.7689 84.1104L79.9067 80.7296ZM71.4378 70.8884C69.3633 66.5797 68.2818 61.274 68.2818 54.9H64.2818C64.2818 61.7126 65.4364 67.6443 67.8338 72.6236L71.4378 70.8884ZM68.2818 54.9C68.2818 48.526 69.3633 43.2203 71.4378 38.9116L67.8338 37.1764C65.4364 42.1557 64.2818 48.0874 64.2818 54.9H68.2818ZM71.4378 38.9116C73.5295 34.5674 76.3543 31.3507 79.8888 29.1676L77.7868 25.7644C73.524 28.3973 70.2141 32.2326 67.8338 37.1764L71.4378 38.9116ZM79.9067 29.1564C83.4633 26.9074 87.5023 25.768 92.0818 25.768V21.768C86.8 21.768 82.0097 23.0939 77.7689 25.7756L79.9067 29.1564ZM92.0818 25.768C96.7238 25.768 100.756 26.9098 104.246 29.1492L106.406 25.7828C102.213 23.0915 97.4159 21.768 92.0818 21.768V25.768ZM104.275 29.1676C107.809 31.3507 110.634 34.5674 112.726 38.9116L116.33 37.1764C113.95 32.2326 110.64 28.3973 106.377 25.7644L104.275 29.1676ZM112.726 38.9116C114.8 43.2203 115.882 48.526 115.882 54.9H119.882C119.882 48.0874 118.727 42.1557 116.33 37.1764L112.726 38.9116ZM115.882 54.9C115.882 61.274 114.8 66.5797 112.726 70.8884L116.33 72.6236C118.727 67.6443 119.882 61.7126 119.882 54.9H115.882ZM112.726 70.8884C110.633 75.2357 107.803 78.4874 104.257 80.7296L106.395 84.1104C110.646 81.422 113.951 77.5643 116.33 72.6236L112.726 70.8884ZM104.264 80.7254C100.772 82.9141 96.733 84.032 92.0818 84.032V88.032C97.4066 88.032 102.197 86.7419 106.388 84.1146L104.264 80.7254ZM92.0818 76.25C94.8329 76.25 97.3054 75.4687 99.4047 73.8592L96.9709 70.6848C95.6303 71.7126 94.032 72.25 92.0818 72.25V76.25ZM99.3795 73.8782C101.583 72.2431 103.151 69.7511 104.209 66.6378L100.422 65.3502C99.5314 67.9703 98.347 69.6636 96.9961 70.6658L99.3795 73.8782ZM104.198 66.6714C105.336 63.509 105.864 59.5588 105.864 54.9H101.864C101.864 59.2998 101.36 62.7456 100.434 65.3166L104.198 66.6714ZM105.864 54.9C105.864 50.2412 105.336 46.2909 104.198 43.1286L100.434 44.4834C101.36 47.0544 101.864 50.5002 101.864 54.9H105.864ZM104.209 43.1622C103.151 40.0489 101.583 37.5569 99.3795 35.9218L96.9961 39.1342C98.347 40.1364 99.5314 41.8297 100.422 44.4498L104.209 43.1622ZM99.4047 35.9408C97.3054 34.3313 94.8329 33.55 92.0818 33.55V37.55C94.032 37.55 95.6303 38.0873 96.9709 39.1152L99.4047 35.9408ZM92.0818 33.55C89.376 33.55 86.9193 34.3376 84.7841 35.9218L87.1675 39.1342C88.587 38.081 90.201 37.55 92.0818 37.55V33.55ZM84.7589 35.9408C82.6348 37.5693 81.0774 40.0414 79.966 43.1286L83.7296 44.4834C84.6822 41.8372 85.8768 40.124 87.1927 39.1152L84.7589 35.9408ZM79.9543 43.1622C78.8834 46.3119 78.3858 50.2492 78.3858 54.9H82.3858C82.3858 50.4921 82.8629 47.0335 83.7414 44.4498L79.9543 43.1622ZM78.3858 54.9C78.3858 59.5507 78.8834 63.4881 79.9543 66.6378L83.7414 65.3502C82.8629 62.7665 82.3858 59.3079 82.3858 54.9H78.3858ZM79.966 66.6714C81.0774 69.7586 82.6348 72.2307 84.7589 73.8592L87.1927 70.6848C85.8768 69.676 84.6822 67.9627 83.7296 65.3166L79.966 66.6714ZM84.7841 73.8782C86.9193 75.4624 89.376 76.25 92.0818 76.25V72.25C90.201 72.25 88.587 71.719 87.1675 70.6658L84.7841 73.8782ZM145.377 82.42L144.308 84.1104L144.317 84.116L144.326 84.1216L145.377 82.42ZM136.175 71.756L134.373 72.6236L136.175 71.756ZM136.175 38.044L137.977 38.9116L137.977 38.9116L136.175 38.044ZM145.377 27.466L146.428 29.1676L146.437 29.162L146.446 29.1564L145.377 27.466ZM171.865 27.466L170.785 29.1492L170.799 29.1585L170.814 29.1676L171.865 27.466ZM181.067 38.044L179.265 38.9116L179.265 38.9116L181.067 38.044ZM181.067 71.756L179.265 70.8884L179.265 70.8884L181.067 71.756ZM171.865 82.42L172.927 84.1146L172.934 84.1104L171.865 82.42ZM164.727 72.272L163.535 70.6658L163.523 70.6752L163.51 70.6848L164.727 72.272ZM168.855 65.994L166.973 65.3166L166.967 65.3333L166.961 65.3502L168.855 65.994ZM168.855 43.806L166.961 44.4498L166.967 44.4667L166.973 44.4834L168.855 43.806ZM164.727 37.528L163.51 39.1152L163.523 39.1248L163.535 39.1342L164.727 37.528ZM152.515 37.528L151.323 35.9218L151.311 35.9312L151.298 35.9408L152.515 37.528ZM148.387 43.806L146.505 43.1286L146.499 43.1453L146.493 43.1622L148.387 43.806ZM148.387 65.994L146.493 66.6378L146.499 66.6547L146.505 66.6714L148.387 65.994ZM152.515 72.272L151.298 73.8592L151.311 73.8688L151.323 73.8782L152.515 72.272ZM158.621 84.032C154.032 84.032 149.987 82.9165 146.428 80.7184L144.326 84.1216C148.565 86.7395 153.348 88.032 158.621 88.032V84.032ZM146.446 80.7296C142.9 78.4874 140.07 75.2357 137.977 70.8884L134.373 72.6236C136.752 77.5643 140.057 81.422 144.308 84.1104L146.446 80.7296ZM137.977 70.8884C135.902 66.5797 134.821 61.274 134.821 54.9H130.821C130.821 61.7126 131.975 67.6443 134.373 72.6236L137.977 70.8884ZM134.821 54.9C134.821 48.526 135.902 43.2203 137.977 38.9116L134.373 37.1764C131.975 42.1557 130.821 48.0874 130.821 54.9H134.821ZM137.977 38.9116C140.069 34.5674 142.893 31.3507 146.428 29.1676L144.326 25.7644C140.063 28.3973 136.753 32.2326 134.373 37.1764L137.977 38.9116ZM146.446 29.1564C150.002 26.9074 154.041 25.768 158.621 25.768V21.768C153.339 21.768 148.549 23.0939 144.308 25.7756L146.446 29.1564ZM158.621 25.768C163.263 25.768 167.295 26.9098 170.785 29.1492L172.945 25.7828C168.752 23.0915 163.955 21.768 158.621 21.768V25.768ZM170.814 29.1676C174.348 31.3507 177.173 34.5674 179.265 38.9116L182.869 37.1764C180.489 32.2326 177.179 28.3973 172.916 25.7644L170.814 29.1676ZM179.265 38.9116C181.34 43.2203 182.421 48.526 182.421 54.9H186.421C186.421 48.0874 185.266 42.1557 182.869 37.1764L179.265 38.9116ZM182.421 54.9C182.421 61.274 181.34 66.5797 179.265 70.8884L182.869 72.6236C185.266 67.6443 186.421 61.7126 186.421 54.9H182.421ZM179.265 70.8884C177.172 75.2357 174.342 78.4874 170.796 80.7296L172.934 84.1104C177.185 81.422 180.49 77.5643 182.869 72.6236L179.265 70.8884ZM170.803 80.7254C167.311 82.9141 163.272 84.032 158.621 84.032V88.032C163.946 88.032 168.736 86.7419 172.927 84.1146L170.803 80.7254ZM158.621 76.25C161.372 76.25 163.845 75.4687 165.944 73.8592L163.51 70.6848C162.169 71.7126 160.571 72.25 158.621 72.25V76.25ZM165.919 73.8782C168.122 72.2431 169.69 69.7511 170.748 66.6378L166.961 65.3502C166.071 67.9703 164.886 69.6636 163.535 70.6658L165.919 73.8782ZM170.737 66.6714C171.875 63.509 172.403 59.5588 172.403 54.9H168.403C168.403 59.2998 167.899 62.7456 166.973 65.3166L170.737 66.6714ZM172.403 54.9C172.403 50.2412 171.875 46.2909 170.737 43.1286L166.973 44.4834C167.899 47.0544 168.403 50.5002 168.403 54.9H172.403ZM170.748 43.1622C169.69 40.0489 168.122 37.5569 165.919 35.9218L163.535 39.1342C164.886 40.1364 166.071 41.8297 166.961 44.4498L170.748 43.1622ZM165.944 35.9408C163.845 34.3313 161.372 33.55 158.621 33.55V37.55C160.571 37.55 162.169 38.0873 163.51 39.1152L165.944 35.9408ZM158.621 33.55C155.915 33.55 153.458 34.3376 151.323 35.9218L153.707 39.1342C155.126 38.081 156.74 37.55 158.621 37.55V33.55ZM151.298 35.9408C149.174 37.5693 147.617 40.0414 146.505 43.1286L150.269 44.4834C151.221 41.8372 152.416 40.124 153.732 39.1152L151.298 35.9408ZM146.493 43.1622C145.423 46.3119 144.925 50.2492 144.925 54.9H148.925C148.925 50.4921 149.402 47.0335 150.28 44.4498L146.493 43.1622ZM144.925 54.9C144.925 59.5507 145.423 63.4881 146.493 66.6378L150.28 65.3502C149.402 62.7665 148.925 59.3079 148.925 54.9H144.925ZM146.505 66.6714C147.617 69.7586 149.174 72.2307 151.298 73.8592L153.732 70.6848C152.416 69.676 151.221 67.9627 150.269 65.3166L146.505 66.6714ZM151.323 73.8782C153.458 75.4624 155.915 76.25 158.621 76.25V72.25C156.74 72.25 155.126 71.719 153.707 70.6658L151.323 73.8782Z" fill="url(#paint0_linear_64_4116)"/>
<defs>
<linearGradient id="paint0_linear_64_4116" x1="0" y1="54" x2="188" y2="54" gradientUnits="userSpaceOnUse">
<stop stop-color="#F7941D"/>
<stop offset="1" stop-color="#27AAE1"/>
</linearGradient>
</defs>
</svg>
