<svg width="18" height="18" viewBox="0 0 18 18" fill="none" xmlns="http://www.w3.org/2000/svg">
<path fill-rule="evenodd" clip-rule="evenodd" d="M15.2545 13.4999L9.99681 3.45926C9.8026 3.08865 9.41875 2.85645 9.00034 2.85645C8.58193 2.85645 8.19808 3.08865 8.00387 3.45926L2.74562 13.4999C2.56294 13.8486 2.57587 14.2675 2.77972 14.6044C2.98357 14.9412 3.34866 15.147 3.74237 15.1469H14.2577C14.6515 15.147 15.0166 14.9412 15.2204 14.6044C15.4242 14.2675 15.4372 13.8486 15.2545 13.4999ZM8.43756 6.98785C8.43756 6.67719 8.6894 6.42535 9.00006 6.42535C9.31072 6.42535 9.56256 6.67719 9.56256 6.98785V10.3628C9.56256 10.6735 9.31072 10.9253 9.00006 10.9253C8.6894 10.9253 8.43756 10.6735 8.43756 10.3628V6.98785ZM9.01244 13.4622H9.02819C9.25155 13.4586 9.46403 13.3651 9.61754 13.2028C9.77105 13.0405 9.85262 12.8231 9.84381 12.5999C9.8257 12.1394 9.44741 11.7753 8.98656 11.7747H8.97081C8.748 11.7788 8.53617 11.8723 8.38299 12.0341C8.2298 12.196 8.14812 12.4126 8.15631 12.6353C8.17381 13.0959 8.55151 13.4607 9.01244 13.4622Z" fill="#FF3654"/>
</svg>
