<svg width="18" height="18" viewBox="0 0 18 18" fill="none" xmlns="http://www.w3.org/2000/svg">
<g clip-path="url(#clip0_98447_9534)">
<path fill-rule="evenodd" clip-rule="evenodd" d="M2.25 9C2.25 5.27208 5.27208 2.25 9 2.25C12.7261 2.25434 15.7457 5.27388 15.75 9C15.75 12.7279 12.7279 15.75 9 15.75C5.27208 15.75 2.25 12.7279 2.25 9ZM9.04612 12.0876L12.8964 6.8625C13.0266 6.70139 13.0577 6.48179 12.9774 6.29087C12.8971 6.09996 12.7183 5.96863 12.5121 5.94902C12.306 5.92942 12.1057 6.02471 11.9908 6.19706L8.48812 10.9508L6.19537 9.11644C5.95275 8.92228 5.59866 8.96156 5.4045 9.20419C5.21034 9.44681 5.24962 9.8009 5.49225 9.99506L8.24175 12.1933C8.36195 12.2873 8.51485 12.329 8.66611 12.3091C8.81737 12.2892 8.9543 12.2094 9.04612 12.0876Z" fill="#13BD38"/>
</g>
<defs>
<clipPath id="clip0_98447_9534">
<rect width="13.5" height="13.5" fill="white" transform="translate(2.25 2.25)"/>
</clipPath>
</defs>
</svg>
