<svg width="27" height="16" viewBox="0 0 27 16" fill="none" xmlns="http://www.w3.org/2000/svg">
<path d="M25.5469 1.71484C25.6875 1.15234 25.5469 0.683594 24.7031 0.683594H21.9375C21.2344 0.683594 20.9062 1.05859 20.7188 1.48047C20.7188 1.48047 19.3125 4.90234 17.3438 7.15234C16.6875 7.76172 16.4062 7.99609 16.0312 7.99609C15.8906 7.99609 15.6094 7.76172 15.6094 7.19922V1.71484C15.6094 1.01172 15.4219 0.683594 14.8125 0.683594H10.5C10.0312 0.683594 9.79688 1.01172 9.79688 1.33984C9.79688 1.99609 10.7812 2.13672 10.875 4.01172V8.08984C10.875 8.98047 10.7344 9.16797 10.3594 9.16797C9.42188 9.16797 7.17188 5.69922 5.8125 1.76172C5.53125 1.01172 5.25 0.683594 4.54688 0.683594H1.78125C1.03125 0.683594 0.84375 1.05859 0.84375 1.48047C0.84375 2.23047 1.78125 5.83984 5.20312 10.668C7.5 13.9492 10.7344 15.6836 13.6406 15.6836C15.375 15.6836 15.6094 15.3086 15.6094 14.6523C15.6094 11.5117 15.4688 11.1836 16.3125 11.1836C16.7344 11.1836 17.4375 11.418 19.0781 13.0117C20.9531 14.8867 21.2812 15.6836 22.3125 15.6836H25.0781C25.875 15.6836 26.25 15.3086 26.0156 14.5117C25.5 12.918 21.9844 9.54297 21.7969 9.30859C21.375 8.79297 21.5156 8.55859 21.7969 8.08984C21.7969 8.08984 25.1719 3.30859 25.5469 1.71484Z" fill="#00093C"/>
</svg>
